<svg width="275" height="275" viewBox="0 0 275 275" fill="none" xmlns="http://www.w3.org/2000/svg">
<path d="M125.008 190.593L125.348 191.621H126.432H149.799H151.887L151.221 189.642L112.452 74.5213L112.108 73.5H111.031H83.2375H82.1552L81.814 74.5272L43.5765 189.648L42.9212 191.621H45H67.4823H68.5827L68.9131 190.571L78.8502 158.998H114.55L125.008 190.593ZM91.9223 113.723L91.9252 113.714L91.9279 113.705C93.3368 109.175 94.5882 104.135 95.7746 99.3571L95.7824 99.3257L95.7824 99.3256C95.9745 98.552 96.1648 97.7852 96.354 97.028C97.7756 102.453 99.3364 108.336 101.108 113.728L101.109 113.731L109.839 140.113H83.3543L91.9223 113.723ZM229.292 155.923H230.536L230.766 154.701C231.139 152.722 231.5 149.554 231.5 145.541C231.5 136.191 229.196 125.726 223.175 117.558C217.104 109.321 207.352 103.561 192.825 103.561C178.587 103.561 167.633 109.17 160.261 117.816C152.915 126.433 149.193 137.982 149.193 149.812C149.193 162.867 153.423 173.83 161.377 181.527C169.328 189.221 180.841 193.5 195.126 193.5C207.709 193.5 218.161 191.072 225.766 188.102L226.96 187.636L226.685 186.384L223.499 171.865L223.131 170.189L221.519 170.778C215.156 173.101 208.076 174.444 198.135 174.444C191.441 174.444 185.275 172.868 180.758 169.605C176.631 166.622 173.783 162.166 173.182 155.923H229.292ZM173.303 138.234C173.934 134.581 175.448 130.55 178.042 127.305C180.997 123.609 185.362 120.908 191.585 120.908C198.322 120.908 202.369 123.8 204.777 127.506C206.924 130.809 207.813 134.842 207.952 138.234H173.303Z" fill="#846075" stroke="#846075" stroke-width="3"/>
<rect x="2.5" y="2.5" width="270" height="270" rx="74.5" stroke="#846075" stroke-width="5"/>
</svg>
