<svg width="275" height="275" viewBox="0 0 275 275" fill="none" xmlns="http://www.w3.org/2000/svg">
<path d="M140.792 145.848C141.089 140.677 143.621 136.114 147.444 132.882C151.456 129.548 156.516 127.739 161.73 127.776C167.22 127.776 172.264 129.715 176.009 132.882C179.833 136.114 182.358 140.677 182.649 145.841C182.939 151.16 180.808 156.092 177.062 159.757C172.936 163.7 167.435 165.875 161.73 165.819C156.021 165.876 150.516 163.701 146.385 159.757C142.639 156.092 140.501 151.16 140.792 145.848ZM107.467 156.299C107.506 158.328 108.152 162.258 109.12 165.335C111.212 171.953 114.723 178.035 119.409 183.154C124.433 188.683 130.567 193.09 137.408 196.087C144.854 199.372 152.909 201.046 161.045 200.999C169.181 201.015 177.229 199.315 184.664 196.009C191.5 192.984 197.627 188.558 202.65 183.018C207.328 177.882 210.836 171.792 212.932 165.166C214.947 158.748 215.499 151.959 214.546 145.298C213.64 138.917 211.404 132.798 207.985 127.337C204.817 122.256 200.766 117.784 196.024 114.132H196.037L147.612 76.9228L147.483 76.8259C144.305 74.3828 138.964 74.3957 135.47 76.8388C131.938 79.3078 131.537 83.3991 134.676 85.9844L134.67 85.9909L154.858 102.427L93.3104 102.492H93.2264C88.1372 102.498 83.2483 105.84 82.2795 110.067C81.2849 114.365 84.7337 117.933 90.0295 117.952V117.965L121.223 117.9L65.5524 160.668L65.3328 160.83C60.0822 164.85 58.3901 171.546 61.6968 175.779C65.0551 180.09 72.1916 180.097 77.5003 175.805L107.88 150.928C107.88 150.928 107.428 154.289 107.467 156.299ZM185.548 167.551C179.284 173.937 170.526 177.557 161.039 177.57C151.545 177.595 142.781 174.002 136.517 167.629C133.559 164.657 131.276 161.081 129.826 157.145C128.496 153.443 127.971 149.499 128.285 145.577C128.599 141.655 129.745 137.845 131.647 134.401C133.539 130.997 136.067 127.989 139.094 125.54C145.177 120.576 152.921 117.894 161.026 117.881C169.138 117.868 176.881 120.531 182.972 125.475C186.072 128.002 188.59 130.995 190.412 134.311C192.297 137.708 193.446 141.465 193.783 145.337C194.125 149.305 193.598 153.299 192.239 157.042C190.788 160.984 188.503 164.567 185.548 167.551Z" fill="#846075"/>
<rect x="2.5" y="2.5" width="270" height="270" rx="74.5" stroke="#846075" stroke-width="5"/>
</svg>
