<svg width="275" height="275" viewBox="0 0 275 275" fill="none" xmlns="http://www.w3.org/2000/svg">
<path d="M158.443 120.771C149.155 120.771 141.627 128.261 141.627 137.502C141.627 146.743 149.155 154.233 158.443 154.233H158.987C168.276 154.233 175.804 146.743 175.804 137.502C175.804 128.261 168.276 120.771 158.987 120.771H158.443ZM158.987 162.383H158.443C144.631 162.383 133.435 151.244 133.435 137.502C133.435 123.76 144.631 112.621 158.443 112.621H158.987C172.8 112.621 183.996 123.76 183.996 137.502C183.996 151.244 172.8 162.383 158.987 162.383ZM116.075 162.383C106.787 162.383 99.2544 169.873 99.2544 179.114C99.2544 188.356 106.782 195.845 116.071 195.845C116.12 195.845 116.173 195.845 116.222 195.845H116.213C116.227 195.845 116.245 195.845 116.262 195.845C125.716 195.845 133.391 188.245 133.44 178.848V162.383H116.075ZM116.209 204C116.151 204 116.08 204 116.008 204C102.196 204 91 192.861 91 179.119C91 165.377 102.196 154.238 116.008 154.238C116.031 154.238 116.053 154.238 116.075 154.238H141.627V178.848C141.574 192.75 130.231 204 116.253 204C116.24 204 116.227 204 116.213 204H116.209ZM116.075 120.771C106.787 120.771 99.2588 128.261 99.2588 137.502C99.2588 146.743 106.787 154.238 116.075 154.238L133.435 154.233V120.776L116.075 120.771ZM141.623 162.383H116.075C102.263 162.383 91.0669 151.244 91.0669 137.502C91.0669 123.76 102.263 112.621 116.075 112.621H141.627V162.383H141.623ZM116.075 79.1592C106.787 79.1592 99.2588 86.6489 99.2588 95.8901C99.2588 105.131 106.787 112.621 116.075 112.621H133.435V79.1548L116.075 79.1592ZM141.623 120.771H116.075C102.263 120.771 91.0624 109.632 91.0624 95.8857C91.0624 82.1391 102.258 71 116.075 71H141.627V120.767L141.623 120.771ZM141.623 112.621H158.987C168.258 112.599 175.759 105.118 175.759 95.8901C175.759 86.6622 168.253 79.1814 158.983 79.1592H141.623V112.621ZM158.987 120.771L133.435 120.776V71.0044H158.987C172.8 71.0044 184 82.1436 184 95.8901C184 109.637 172.804 120.771 158.987 120.771Z" fill="#846075"/>
<rect x="2.5" y="2.5" width="270" height="270" rx="74.5" stroke="#846075" stroke-width="5"/>
</svg>
