<svg width="275" height="275" viewBox="0 0 275 275" fill="none" xmlns="http://www.w3.org/2000/svg">
<path d="M98.3784 164.752H97.0651L96.7141 166.018L88.7883 194.59H61.7645L97.2281 78.5582H131.565L167.529 194.54L167.544 194.59H139.485L130.886 165.982L130.516 164.752H129.232H98.3784ZM131.541 78.482L131.541 78.4825L131.541 78.482ZM124.478 145.305H126.786L126.136 143.091L119.502 120.503L119.502 120.503L119.499 120.493C117.981 115.436 116.462 109.44 115.072 103.853L111.712 103.886C111.477 104.916 111.24 105.969 111 107.04C109.947 111.713 108.872 116.484 107.739 120.504L107.738 120.507L101.414 143.113L100.801 145.305H103.077H124.478ZM184.183 77.6621L184.184 77.6617C186.619 75.1694 190.219 73.7271 194.41 73.7271C202.485 73.7271 208.087 79.1206 208.272 86.8833C208.262 94.3836 202.52 99.9002 194.238 99.9002C190.186 99.9002 186.643 98.4634 184.191 95.9524L184.191 95.9523C181.888 93.5939 180.645 90.4057 180.719 86.9367L180.72 86.9008L180.719 86.8649C180.646 83.248 181.899 79.9988 184.183 77.6621ZM181.41 194.59V110.466H207.41V194.59H181.41Z" fill="#846075" stroke="#846075" stroke-width="3.45428"/>
<rect x="2.5" y="2.5" width="270" height="270" rx="74.5" stroke="#846075" stroke-width="5"/>
</svg>
