<svg width="51" height="51" viewBox="0 0 51 51" fill="none" xmlns="http://www.w3.org/2000/svg">
<path fill-rule="evenodd" clip-rule="evenodd" d="M37.0568 17.0521H37.0498C31.2287 17.0521 26.5098 21.771 26.5098 27.5921V51H26.7718C32.452 51 37.0568 46.3951 37.0568 40.715V17.0521Z" fill="#846075"/>
<path fill-rule="evenodd" clip-rule="evenodd" d="M13.7275 0C16.5239 0.00119456 19.2053 1.11317 21.1818 3.09133C23.1583 5.06948 24.2681 7.75177 24.267 10.5482V51H24.0131C18.3328 51 13.7281 46.3913 13.7281 40.7065C13.7279 27.1377 13.7277 13.5688 13.7275 0Z" fill="#BB9BB0"/>
<path fill-rule="evenodd" clip-rule="evenodd" d="M13.7275 0H10.03C10.1203 0.0386325 10.2079 0.07871 10.2966 0.121975C11.2228 0.571984 12.0222 1.24581 12.6225 2.0825C13.364 3.13931 13.7509 4.40421 13.7275 5.695" fill="#BB9BB0"/>
<path fill-rule="evenodd" clip-rule="evenodd" d="M37.06 17.0425H40.7575C40.6669 17.0807 40.5793 17.1207 40.4909 17.1645C40.1143 17.3507 39.7035 17.629 39.27 18.02C38.7932 18.4412 38.3782 18.9277 38.0375 19.465C37.6408 20.1071 37.3587 20.8134 37.204 21.5522C37.1206 21.9422 37.0724 22.3389 37.06 22.7375" fill="#846075"/>
<path fill-rule="evenodd" clip-rule="evenodd" d="M41.82 17.4675C43.3819 18.434 44.0198 19.5013 44.2425 20.315C44.4651 21.1549 44.4355 22.0418 44.1575 22.865C43.996 23.3509 43.6866 23.9425 43.1375 24.565C42.7822 24.9677 42.1746 25.473 41.4055 25.9116C40.6171 26.3591 39.7694 26.6927 38.8875 26.9025C39.494 26.228 40.0216 25.4866 40.46 24.6925C41.1301 23.4758 41.2808 22.4783 41.14 22.015C40.8671 21.1176 39.9773 20.3068 39.015 20.2725C38.6771 20.2635 38.342 20.3363 38.0383 20.4847C37.8994 20.5518 37.7705 20.6377 37.655 20.74C37.4522 20.9227 37.3379 21.0914 37.2725 21.25C37.2376 21.335 37.1886 21.4755 37.06 21.59C36.9975 21.6451 36.9255 21.6883 36.8475 21.7175C36.9976 20.7999 37.3275 19.9977 37.8675 19.3375C38.1306 19.0159 38.7245 18.5738 38.675 18.445C38.4826 17.9445 32.0991 19.9557 28.8575 20.995C30.4138 18.9295 32.5621 17.4082 35.0625 16.7875C37.1839 16.2609 39.7745 16.2017 41.82 17.4675Z" fill="#846075"/>
<path d="M37.655 17.0425H36.2525V20.57H37.655V17.0425Z" fill="#846075"/>
<path fill-rule="evenodd" clip-rule="evenodd" d="M36.0655 18.4546L37.9452 19.4458L36.9538 21.3254L35.0741 20.3342L36.0655 18.4546Z" fill="#846075"/>
<path fill-rule="evenodd" clip-rule="evenodd" d="M30.0475 26.69L31.5775 23.7575L30.0475 26.69Z" fill="#846075"/>
</svg>
