<svg width="275" height="275" viewBox="0 0 275 275" fill="none" xmlns="http://www.w3.org/2000/svg">
<path d="M92.9709 153.383L91.1714 153.208V155.016V192.66H66.6403V83.918C75.531 82.4118 86.8418 81.6403 100.284 81.6403C115.742 81.6403 126.656 84.6189 133.965 90.4643L133.972 90.4699C141.403 96.3466 145.718 105.608 145.718 115.938C145.718 126.678 142.07 135.92 135.598 142.07C127.63 149.576 115.324 153.674 99.791 153.674C97.2391 153.674 94.9194 153.573 92.9709 153.383ZM91.1714 132.687V134.088L92.5549 134.307C94.3729 134.595 96.6046 134.714 99.6274 134.714C106.114 134.714 111.509 133.113 115.312 129.966C119.155 126.787 121.189 122.178 121.189 116.592C121.189 111.513 119.388 107.346 115.888 104.485C112.436 101.662 107.529 100.273 101.593 100.273C97.0637 100.273 94.1234 100.664 92.5027 100.975L91.1714 101.231V102.586V132.687ZM191.642 143.881L191.65 143.884C199.303 146.517 204.666 149.752 208.138 153.734C211.574 157.674 213.273 162.477 213.359 168.51C213.356 176.47 210.113 182.837 204.266 187.26C198.366 191.723 189.686 194.298 178.735 194.298C168.812 194.298 159.431 192.248 152.972 188.779L157.341 171.135C159.805 172.609 163.35 174.089 167.112 175.205C170.935 176.34 175.11 177.139 178.735 177.139C183.46 177.139 186.27 176.139 187.863 174.552C189.485 172.936 189.485 171.059 189.484 170.345V170.321C189.484 169.525 189.412 168.645 189.042 167.754C188.664 166.845 188.033 166.059 187.125 165.337C185.396 163.962 182.451 162.661 177.621 161.05C167.873 157.769 162.197 153.525 158.967 149.297C155.749 145.082 154.857 140.747 154.92 137.071L154.92 137.057V137.043C154.92 129.398 158.194 122.93 163.845 118.339C169.52 113.729 177.667 110.962 187.416 110.962C197.298 110.962 205.537 113.339 209.902 115.501L205.532 132.492C201.622 130.385 194.833 127.956 188.236 127.956C186.679 127.956 184.415 128.119 182.481 128.965C181.496 129.396 180.523 130.036 179.794 130.993C179.049 131.971 178.633 133.184 178.633 134.611C178.633 135.435 178.781 136.3 179.277 137.167C179.758 138.009 180.498 138.73 181.474 139.405C183.38 140.723 186.553 142.1 191.642 143.881Z" fill="#846075" stroke="#846075" stroke-width="3.28068"/>
<rect x="2.5" y="2.5" width="270" height="270" rx="74.5" stroke="#846075" stroke-width="5"/>
</svg>
